<?xml version="1.0" encoding="UTF-8" standalone="no"?>
<!-- Created with Inkscape (http://www.inkscape.org/) -->

<svg
   version="1.1"
   id="svg2"
   xml:space="preserve"
   width="1202.9425"
   height="275.59045"
   viewBox="0 0 1202.9425 275.59045"
   xmlns="http://www.w3.org/2000/svg"
   xmlns:svg="http://www.w3.org/2000/svg"><defs
     id="defs6" /><g
     id="g8"
     transform="matrix(1.3333333,0,0,-1.3333333,-359.71097,924.32731)"><g
       id="g10"
       transform="scale(0.1)"><path
         d="m 4685.4364,6249.1205 c -170.6614,153.1907 -207.3032,182.2572 -426.7625,263.0715 94.5172,-51.8716 165.2129,-114.3972 244.3714,-184.1015 -39.9635,-4.9477 -79.9319,-9.8904 -119.8953,-14.8332 0,0 9.9252,-6.6531 60.6467,-37.8168 50.7214,-31.1636 137.3758,-109.2264 137.3758,-109.2264 0,0 0,0 -23.6727,3.3315 -23.6726,3.3266 -110.0593,4.2338 -110.0593,4.2338 234.4908,-132.9933 283.8787,-346.7017 223.7229,-591.668 120.8917,196.0692 95.7466,354.0341 -32.5865,529.6432 48.8822,-20.133 91.9045,-43.3842 135.0457,-72.3169 0,0 -6.0879,11.5016 -61.3456,80.487 -55.2478,68.9804 -173.2989,158.6887 -173.2989,158.6887 43.4041,1.4774 90.5263,-5.7112 146.4583,-29.4929 z M 3549.2375,6089.0189 c 27.49,10.8423 74.0967,5.151 92.1375,21.6599 13.6533,12.4932 32.413,49.3085 32.413,49.3085 -68.8813,-3.6141 -96.3614,-4.908 -124.5505,-70.9684 z m -399.8177,-397.1853 c 0,0 -55.7337,57.2755 -68.4153,78.7024 -12.6816,21.4268 -35.8089,68.9358 0.3123,96.4456 36.1263,27.5099 75.6138,35.1 99.4599,36.979 23.8462,1.8789 23.8462,1.8789 23.8462,1.8789 0,0 46.9735,33.6871 86.228,48.2675 6.6928,2.4887 12.5676,5.0022 17.7037,7.4711 v 0 c 26.4589,10.1384 86.3619,54.8562 106.9608,90.4817 20.599,35.6205 20.599,35.6205 20.599,35.6205 0,0 -49.8341,-47.7568 -83.3278,-68.5144 12.8303,37.3805 34.7728,97.8884 57.6373,145.6105 35.7247,74.5676 166.6209,180.1701 251.1782,224.9424 84.5523,44.7773 123.7573,69.7241 164.0677,97.0009 l 6.7573,4.5709 -163.4629,-67.4187 c 84.1111,94.5865 185.2268,153.265 235.3881,413.9123 64.816,-5.042 106.2271,-51.5643 134.2526,-103.0344 3.3464,7.0002 6.6432,14.2482 9.8755,21.7689 l 0.1141,0.2677 1.0857,2.5483 0.084,0.1983 c 0.6345,1.512 1.2741,3.034 1.9087,4.5659 l 0.1636,0.3967 1.0708,2.6077 0.1537,0.3718 c 0.6445,1.5963 1.2939,3.1977 1.9335,4.8188 l 1.3435,3.396 1.7451,4.5213 1.5914,4.2041 1.5815,4.2536 1.8144,5.0122 1.2642,3.5447 c 0.704,1.9979 1.403,4.0157 2.1021,6.0483 l 0.8874,2.6028 c 0.7535,2.2309 1.5021,4.4916 2.2508,6.7671 l 0.7138,2.1963 c 0.7635,2.3449 1.522,4.7246 2.2706,7.1241 l 0.7833,2.5135 c 0.7933,2.5383 1.5667,5.1014 2.34,7.6893 l 0.5305,1.7599 c 0.7833,2.6474 1.5567,5.3245 2.3301,8.0264 l 0.6247,2.2012 c 0.7932,2.7911 1.5765,5.617 2.3499,8.4676 l 0.4115,1.5022 c 0.8279,3.0638 1.6409,6.1574 2.454,9.2856 l 0.2379,0.9221 c 0.8379,3.2622 1.6757,6.559 2.4937,9.8955 l 0.1835,0.7436 c 0.8328,3.396 1.6558,6.8316 2.4689,10.302 l 0.1586,0.6692 c 0.7833,3.3861 1.5666,6.8019 2.34,10.2623 l 0.2677,1.2147 c 0.7982,3.5744 1.5765,7.1984 2.3499,10.8572 l 0.059,0.2875 c 0.7982,3.7876 1.5815,7.6149 2.3549,11.4918 l 0.084,0.3916 c 0.7882,3.9562 1.5616,7.957 2.3301,12.0074 131.6795,-8.7899 166.6952,-192.0684 189.0045,-237.4902 252.7151,-56.973 467.7521,-169.4864 596.0208,-403.9028 -38.3224,27.852 -158.2177,108.6761 -204.8194,104.4126 -0.089,0.035 323.0787,-172.4759 327.8975,-465.194 -14.6647,48.8723 -96.9514,157.1023 -144.2224,158.4607 -2.8605,3.3265 240.8267,-254.5593 34.7381,-471.7827 18.5217,54.3306 29.2054,169.0303 -12.0172,251.8871 -5.032,-412.658 -281.6131,-769.3543 -738.3196,-936.9865 -559.0617,-205.2111 -1178.6262,81.6471 -1383.8373,640.7088 -170.4036,464.257 -1.4625,970.2026 380.8747,1245.9706 -307.1151,-265.4263 -434.3179,-702.8328 -286.1642,-1106.4431 191.1711,-520.8186 768.3529,-788.0496 1289.1764,-596.8835 164.5535,60.4038 322.9001,200.194 380.2747,373.5473 -93.7041,-141.4312 -203.9666,-213.5746 -275.525,-228.3582 49.7498,54.871 64.8804,96.639 60.4334,156.8841 -89.0489,-125.537 -245.0951,-188.2113 -283.6902,-176.0602 294.8449,210.2976 -23.9404,378.6636 -269.3281,144.9461 -47.4742,-45.2234 -94.9584,-90.4419 -137.4205,-107.2384 -42.4719,-16.7964 -91.1905,-7.7388 -112.2555,14.1491 -21.065,21.8879 -26.9447,36.5575 -26.9447,36.5575 4.6701,6.2615 9.3402,12.5131 14.0103,18.7646 0,0 -23.5289,15.2497 -29.7309,30.7373 -6.202,15.4926 -9.7963,24.456 -9.7963,24.456 0,0 14.3027,-7.5653 36.4733,-9.1815 22.1705,-1.6212 22.1705,-1.6212 22.1705,-1.6212 l 0.02,0.065 0.045,-0.084 c 39.5272,16.4445 100.4961,88.7316 69.5902,185.678 2.4392,-78.4693 -37.3061,-129.2899 -58.8867,-137.2073 9.2658,99.8665 -37.7077,252.844 -145.6005,261.3215 -33.8656,2.6573 -45.6945,-1.0758 -45.6945,-1.0758 0,0 -1.6062,-31.7982 10.5152,-54.3901 12.1263,-22.587 13.4302,-25.8541 13.4302,-25.8541 0,0 -44.6682,4.0554 -62.2877,30.1375 -17.6243,26.082 -23.1769,39.9436 -23.1769,39.9436 0,0 -11.5959,-10.7234 -19.7859,-15.8545 -8.1899,-5.1262 -8.1899,-5.1262 -8.1899,-5.1262 0,0 4.9873,-15.0266 10.5399,-28.8832 5.5525,-13.8565 5.8797,-14.6745 5.8797,-14.6745 0,0 -18.3085,2.2012 -30.187,8.8345 -11.8834,6.6333 -12.2106,7.4463 -12.2106,7.4463 0,0 -4.2338,-7.3373 -8.889,-11.0654 -4.6503,-3.7331 -6.792,-11.1844 -6.792,-11.1844 0,0 0.5156,-6.4102 6.3408,-10.7184 5.8252,-4.3032 -16.3453,-2.687 -29.1112,3.5992 -12.7659,6.2863 -18.6952,31.3223 -18.6952,31.3223 0,0 -12.5229,-0.694 -13.331,23.0579 -0.818,23.752 -0.818,23.752 -0.818,23.752 v 0"
         style="fill:#ffffff;fill-opacity:1;fill-rule:evenodd;stroke:none;stroke-width:0.495763"
         id="path2201" /><g
         aria-label="Arise software"
         transform="scale(1,-1)"
         id="text5133"
         style="font-size:720px;line-height:1.25;font-family:'Bowlby One SC';-inkscape-font-specification:'Bowlby One SC';fill:#ffffff;stroke-width:7.5"><path
           d="m 5419.1978,-5639.5376 q 21.7968,-80.5078 48.164,-163.4766 26.3672,-82.9687 65.3906,-198.2812 39.375,-115.6641 53.7891,-159.9609 4.2188,-7.0313 5.625,-8.4375 h 59.0625 q 20.7422,0 61.1719,-0.7032 40.4297,-0.7031 61.1719,-0.7031 h 59.0625 q 5.2734,0 8.789,0.3516 3.5156,0 8.4375,0.7031 4.9219,0.7031 7.7344,2.1094 3.1641,1.4062 5.2734,4.2187 2.1094,2.8125 2.1094,6.6797 l 162.0703,513.6328 q 0,7.0313 -5.2734,9.4922 -4.9219,2.8125 -18.9844,2.8125 h -32.3437 q -14.0625,0 -41.836,0.3516 -27.7734,0.3515 -41.8359,0.3515 -4.2188,0 -17.2266,0.3516 -12.6562,0.7031 -21.4453,0.3516 -8.7891,0 -19.6875,-1.0547 -10.5469,-0.7032 -17.2266,-3.8672 -6.3281,-2.8125 -8.0859,-7.7344 v -23.2031 q -3.5156,-17.5781 -12.3047,-32.3438 -8.789,-14.7656 -18.6328,-14.7656 H 5651.229 l -18.2812,74.5313 q -3.8672,8.4375 -39.375,8.4375 h -28.125 q -15.1172,0 -45,1.0546 -29.8829,1.0547 -45,1.0547 h -9.8438 q -5.625,0 -17.9297,0.3516 -11.9531,0.3516 -18.6328,0.3516 -2.8125,-2.8125 -9.8437,-12.6563 z m 243.9843,-213.3984 9.8438,16.5234 h 23.2031 q 28.125,0 51.3281,-3.1641 23.5547,-3.5156 23.5547,-10.8984 l -45.3515,-202.5 q -6.3282,0 -17.2266,23.9063 -10.5469,23.9062 -17.2266,54.1406 z"
           id="path291" /><path
           d="m 6044.2759,-6123.2876 h 65.3906 q 30.2344,0 96.6797,-1.4062 66.4453,-1.4063 99.4922,-1.4063 28.4765,0 53.0859,3.1641 24.961,3.164 48.8672,11.6015 24.2578,8.4375 41.1328,21.4453 17.2266,13.0079 27.7735,34.4532 10.5468,21.0937 10.5468,48.8672 0,38.3203 -17.9297,65.3906 -17.9296,27.0703 -55.1953,45.7031 14.7657,6.3281 25.6641,16.5234 10.8984,10.1954 16.5234,17.5782 5.9766,7.3828 11.25,24.9609 5.625,17.2266 6.6797,22.8516 1.0547,5.2734 4.5703,26.7187 1.0547,4.9219 1.4063,7.3828 1.4062,14.0625 11.9531,51.6797 10.5469,37.2656 10.5469,57.3047 0,12.6563 -7.7344,12.6563 -21.0937,0 -63.9844,0.3515 -42.539,0.3516 -63.2812,0.3516 -8.4375,-0.7031 -25.3125,-0.7031 h -23.9063 q -7.0312,-2.1094 -13.7109,-21.7969 -6.6797,-19.6875 -9.4922,-44.2969 l -7.7344,-62.5781 q -2.1093,-7.7344 -3.5156,-10.8985 -1.0547,-3.5156 -4.2187,-8.0859 -3.1641,-4.9219 -8.7891,-6.6797 -5.2734,-1.7578 -13.7109,-1.7578 h -16.1719 v 140.625 q 0,1.0547 0,3.5156 0,2.1094 0,3.1641 0,0.7031 0,2.4609 0,1.7578 -0.3516,2.8125 -0.3515,0.7032 -0.7031,2.1094 -0.3516,1.4063 -1.0547,2.1094 -0.3516,0.3515 -1.4062,1.4062 -0.7032,0.7032 -2.1094,1.0547 -1.0547,0.3516 -2.8125,0.7031 -1.4063,0.3516 -3.5156,0.3516 h -184.9219 z m 198.9844,185.625 q 0.7031,0.7031 2.1093,3.1641 1.4063,2.1093 2.8125,3.5156 1.4063,1.4062 2.8125,1.7578 10.5469,0 21.0938,-2.1094 10.5469,-2.4609 21.4453,-7.7343 11.25,-5.2735 17.9297,-16.1719 7.0312,-10.8985 7.0312,-26.0156 0,-36.5625 -70.3125,-36.5625 -7.0312,1.7578 -7.0312,5.625 v 13.3593 q 0,10.1953 1.0547,30.586 1.0547,20.3906 1.0547,30.5859 z"
           id="path293" /><path
           d="m 6530.1353,-5652.897 v -461.9531 q 0.3515,-2.8125 5.625,-4.9219 5.2734,-2.4609 6.3281,-3.5156 h 189.1406 v 457.7344 q -1.7578,7.3828 -3.5156,10.1953 -1.4063,2.4609 -4.9219,2.4609 z"
           id="path295" /><path
           d="m 7070.1353,-5986.8813 q -9.4922,0 -15.4688,-2.8125 -5.9766,-2.8125 -9.4922,-7.0313 -3.5156,-4.2187 -8.0859,-8.4375 -4.2188,-4.2187 -13.711,-7.0312 -9.4921,-2.8125 -24.2578,-2.8125 -4.5703,0 -11.25,1.0546 -6.3281,0.7032 -14.0625,4.5704 -7.7343,3.8671 -7.7343,9.8437 0,6.6797 6.3281,11.6016 6.6797,4.5703 14.7656,6.6797 8.4375,1.7578 18.6328,4.5703 10.5469,2.4609 14.7656,4.5703 l 51.6797,12.6562 q 22.8516,6.3282 41.1328,13.3594 18.2813,7.0313 38.6719,19.3359 20.7422,11.9532 34.4531,26.7188 13.711,14.7656 22.8516,37.2656 9.1406,22.1485 9.1406,48.8672 0,32.3438 -8.4375,57.6563 v -0.7032 q -7.3828,22.5 -20.7422,40.4297 -13.3593,17.5781 -31.6406,29.5313 -18.2812,11.6015 -36.914,19.6875 -18.6329,7.7343 -43.2422,12.6562 -24.2578,4.5703 -43.5938,7.0313 -18.9844,2.1093 -43.9453,3.8672 -110.7422,-5.625 -148.3594,-35.1563 v -4.2187 q -31.9922,-23.9063 -47.4609,-52.0313 -15.1172,-28.125 -17.9297,-63.2812 0,-8.4375 7.7344,-8.4375 2.1094,0 6.3281,0.3515 4.2188,0.3516 6.3281,0.3516 h 35.8594 q 4.9219,-0.7031 14.0625,-0.7031 h 9.1406 q 2.8125,0 4.9219,0.7031 20.3906,-0.7031 69.6094,-0.7031 h 16.1719 q 7.0312,0 10.8984,4.2187 3.8672,4.2188 5.9766,10.5469 2.4609,5.9765 5.2734,12.3047 3.1641,5.9765 10.8984,10.1953 7.7344,4.2187 20.3907,4.2187 13.7109,0 24.6093,-7.0312 11.25,-7.3828 11.25,-21.0938 0,-6.3281 -5.9765,-11.9531 -5.9766,-5.625 -17.9297,-10.1953 -11.9531,-4.5703 -21.4453,-7.3828 -9.1407,-2.8125 -24.961,-6.6797 -15.8203,-3.8672 -20.3906,-5.2734 h -21.0937 q -76.2891,-22.5 -110.0391,-56.9532 -33.3984,-34.8047 -33.3984,-87.8906 0,-35.1562 13.0078,-63.2812 13.3593,-28.125 34.8047,-46.0547 21.7968,-17.9297 50.9765,-29.8828 29.1797,-12.3047 59.4141,-17.2266 30.2344,-5.2734 62.5781,-5.2734 57.3047,0 106.1719,19.3359 49.2187,18.9844 74.5312,49.5703 9.1407,9.1406 14.7657,23.2031 5.625,14.0625 7.0312,22.5 1.7578,8.086 4.2188,27.4219 l -9.8438,14.0625 h -59.7656 q -9.8438,0 -32.6953,-0.7031 -22.8516,-0.7031 -35.5078,-0.7031 z"
           id="path297" /><path
           d="m 7257.8696,-6093.7563 q 0,-21.0938 1.7578,-24.6094 3.1641,-4.9219 10.1954,-4.9219 h 8.4375 q 5.625,0 7.7343,0.7031 h 18.2813 q 35.5078,0 107.2265,-1.7578 72.0704,-1.7578 107.9297,-1.7578 h 93.5157 q 9.1406,1.0547 9.1406,9.1406 v 117.4219 q -0.3516,2.1094 -1.4063,3.8672 -0.7031,1.4062 -1.4062,2.1094 -0.3516,0.3515 -3.1641,2.4609 -2.8125,1.7578 -3.8672,2.8125 h -163.125 v 43.5938 h 15.4688 q 20.3906,0 62.2265,-1.4063 41.836,-1.4062 64.336,-1.4062 9.8437,0 13.3594,3.8671 3.5156,3.8672 3.5156,10.8985 0,1.7578 -0.7031,5.9765 -0.7032,4.2188 -0.7032,5.9766 v 13.3594 q 0,1.4062 0.3516,5.9765 0.3516,4.2188 0.3516,7.3829 v 9.8437 q 0,7.7344 0.7031,15.4688 0.7031,7.7343 0.7031,13.3593 v 9.1407 q -1.7578,4.2187 -2.8125,5.625 -1.0547,1.4062 -3.5156,1.4062 v -0.7031 q -13.0078,0 -45,1.7578 -31.6406,1.7578 -50.625,1.7578 h -56.25 v 45 q 2.8125,0 8.4375,0.3516 5.625,0.3515 8.4375,0.3515 15.8203,0 46.7578,-1.0547 30.9375,-1.0546 44.6484,-1.0546 h 45 q 18.2813,0 23.2032,4.2187 1.7578,2.1094 2.8125,4.2188 v 112.5 q 0,7.3828 -2.8125,11.25 -2.8125,3.8671 -10.5469,4.2187 h -348.0469 l -10.5469,-9.1406 z"
           id="path299" /><path
           d="m 8158.5728,-5986.8813 q -9.4922,0 -15.4688,-2.8125 -5.9766,-2.8125 -9.4922,-7.0313 -3.5156,-4.2187 -8.0859,-8.4375 -4.2188,-4.2187 -13.711,-7.0312 -9.4921,-2.8125 -24.2578,-2.8125 -4.5703,0 -11.25,1.0546 -6.3281,0.7032 -14.0625,4.5704 -7.7343,3.8671 -7.7343,9.8437 0,6.6797 6.3281,11.6016 6.6797,4.5703 14.7656,6.6797 8.4375,1.7578 18.6328,4.5703 10.5469,2.4609 14.7656,4.5703 l 51.6797,12.6562 q 22.8516,6.3282 41.1328,13.3594 18.2813,7.0313 38.6719,19.3359 20.7422,11.9532 34.4531,26.7188 13.711,14.7656 22.8516,37.2656 9.1406,22.1485 9.1406,48.8672 0,32.3438 -8.4375,57.6563 v -0.7032 q -7.3828,22.5 -20.7422,40.4297 -13.3593,17.5781 -31.6406,29.5313 -18.2812,11.6015 -36.914,19.6875 -18.6329,7.7343 -43.2422,12.6562 -24.2578,4.5703 -43.5938,7.0313 -18.9844,2.1093 -43.9453,3.8672 -110.7422,-5.625 -148.3594,-35.1563 v -4.2187 q -31.9922,-23.9063 -47.4609,-52.0313 -15.1172,-28.125 -17.9297,-63.2812 0,-8.4375 7.7344,-8.4375 2.1094,0 6.3281,0.3515 4.2188,0.3516 6.3281,0.3516 h 35.8594 q 4.9219,-0.7031 14.0625,-0.7031 h 9.1406 q 2.8125,0 4.9219,0.7031 20.3906,-0.7031 69.6094,-0.7031 h 16.1719 q 7.0312,0 10.8984,4.2187 3.8672,4.2188 5.9766,10.5469 2.4609,5.9765 5.2734,12.3047 3.1641,5.9765 10.8984,10.1953 7.7344,4.2187 20.3907,4.2187 13.7109,0 24.6093,-7.0312 11.25,-7.3828 11.25,-21.0938 0,-6.3281 -5.9765,-11.9531 -5.9766,-5.625 -17.9297,-10.1953 -11.9531,-4.5703 -21.4453,-7.3828 -9.1407,-2.8125 -24.961,-6.6797 -15.8203,-3.8672 -20.3906,-5.2734 h -21.0937 q -76.2891,-22.5 -110.0391,-56.9532 -33.3984,-34.8047 -33.3984,-87.8906 0,-35.1562 13.0078,-63.2812 13.3593,-28.125 34.8047,-46.0547 21.7968,-17.9297 50.9765,-29.8828 29.1797,-12.3047 59.4141,-17.2266 30.2344,-5.2734 62.5781,-5.2734 57.3047,0 106.1719,19.3359 49.2187,18.9844 74.5312,49.5703 9.1407,9.1406 14.7657,23.2031 5.625,14.0625 7.0312,22.5 1.7578,8.086 4.2188,27.4219 l -9.8438,14.0625 h -59.7656 q -9.8438,0 -32.6953,-0.7031 -22.8516,-0.7031 -35.5078,-0.7031 z"
           id="path301" /><path
           d="m 8323.8071,-5894.0688 -0.7031,-7.7344 q 6.6797,-57.3047 12.6563,-79.8047 13.7109,-52.7344 49.2187,-88.2422 l 8.4375,-8.4375 q 16.875,-19.6875 51.3281,-33.75 h 13.3594 q 34.4531,-14.4141 113.2031,-26.7187 19.6875,0 41.1328,3.164 21.7969,2.8125 48.1641,9.8438 26.3672,6.6797 50.625,21.7968 24.6094,14.7657 40.7813,35.5079 v 9.8437 q 57.6562,72.0703 57.6562,161.7188 0,100.8984 -46.4062,164.5312 l -14.0625,17.5781 q -16.1719,20.0391 -40.4297,34.4532 -23.9063,14.414 -50.9766,22.1484 -27.0703,7.3828 -52.0312,10.5469 -24.6094,3.164 -49.2188,3.164 -36.2109,0 -69.2578,-8.4375 -32.6953,-8.789 -61.5234,-27.0703 -28.4766,-18.2812 -50.2735,-45 -21.7969,-26.7187 -35.5078,-64.3359 -13.3594,-37.9688 -16.1719,-83.6719 z m 193.3594,2.8125 q 0,123.75 47.1094,123.75 13.0078,0 22.5,-4.9219 9.8437,-4.9219 15.8203,-15.1172 5.9766,-10.1953 9.8437,-20.7422 3.8672,-10.5469 5.2735,-26.3672 1.7578,-15.8203 2.1094,-27.7734 0.7031,-11.9531 0.7031,-28.8281 v -12.6563 q 0,-18.2812 -2.1094,-35.1562 -2.1094,-16.875 -7.3828,-33.75 -4.9219,-17.2266 -15.4688,-27.4219 -10.5468,-10.5469 -25.664,-10.5469 -52.7344,0 -52.7344,104.0625 z"
           id="path303" /><path
           d="m 8858.8853,-5669.0688 v -445.7813 q 0,-5.625 3.5156,-8.0859 3.5156,-2.8125 6.3281,-2.8125 3.1641,-0.3516 11.25,-0.3516 h 331.875 q 2.8125,0 4.5703,1.0547 1.7578,0.7031 2.8125,1.7578 1.0547,0.7031 1.4063,2.8125 0.3515,1.7578 0.3515,2.8125 0.3516,1.0547 0,3.1641 0,2.1093 0,2.4609 v 119.5313 h -164.5312 v 12.6562 q 0,4.2188 1.4062,22.5 h 33.0469 q 4.9219,-0.3516 17.5781,-2.1094 13.0078,-2.1093 20.3907,-2.1093 h 28.8281 q 9.8437,0 14.7656,-0.7032 14.4141,0 26.3672,3.5157 11.9531,3.5156 13.0078,7.7343 v 20.3907 q 0,6.6796 -0.7031,20.7421 -0.7031,13.711 -0.7031,20.7422 v 31.6407 q 0.7031,2.8125 0.7031,9.8437 v 14.0625 q -1.4063,11.25 -21.7969,11.25 h -22.5 q -11.9531,0 -34.4531,0.7031 -22.1485,0.7032 -34.4531,0.7032 h -39.375 v 167.3437 h -190.5469 z"
           id="path305" /><path
           d="m 9219.5884,-5995.3188 v -126.5625 h 409.2187 q 5.625,1.0546 7.0313,4.5703 1.4062,3.164 1.4062,9.4922 v 112.5 q -0.7031,8.4375 -9.8437,8.4375 h -99.8438 v 323.4375 q 0,0.3515 -0.3515,1.7578 -0.3516,1.4062 -0.3516,1.7578 0,0.3515 -0.3516,1.4062 -0.3515,1.0547 -0.7031,1.4063 -0.3515,0.3515 -0.7031,1.4062 -0.3516,0.7032 -1.0547,1.0547 -0.3516,0 -1.4062,0.7031 -0.7032,0.3516 -1.7579,0.7032 -0.7031,0.3515 -2.1093,0.7031 -1.0547,0 -2.461,0.3516 h -22.5 q -45,0 -45,-2.8125 -2.8125,0 -8.4375,0.3515 -5.625,0.3516 -8.4375,0.3516 h -28.125 q -8.0859,0 -23.2031,0.3515 -14.7656,0.3516 -23.2031,0.3516 h -19.6875 l -14.0625,-9.8437 v -75.9375 q 0.3515,-20.3907 2.8125,-87.1875 2.8125,-66.7969 2.8125,-105.4688 v -9.1406 q 0,-2.8125 0.3515,-8.7891 0.3516,-5.9765 0.3516,-8.789 0,-3.1641 -0.3516,-12.6563 -0.3515,-9.8437 -0.3515,-12.6562 h -87.8906 q -7.7344,0 -14.7657,-2.461 -7.0312,-2.8125 -7.0312,-8.789 z"
           id="path307" /><path
           d="m 9831.3071,-5887.3892 q 6.3282,-25.664 11.6016,-58.0078 5.625,-32.3437 9.1406,-57.6562 3.5156,-25.3125 8.086,-61.875 4.9218,-36.9141 8.0859,-58.3594 h 202.4998 q 1.055,8.4375 2.11,18.2813 1.406,9.4921 2.461,18.2812 1.054,8.7891 2.109,18.6328 1.406,9.8438 2.461,18.9844 1.055,8.7891 2.109,18.6328 1.055,9.8438 2.11,18.6328 1.406,8.7891 2.461,18.2813 1.406,9.4922 2.46,17.9297 l 15.118,99.4921 28.476,-241.875 q 0.703,-2.1093 2.461,-3.5156 2.11,-1.4062 5.625,-2.1094 3.516,-1.0546 6.68,-1.4062 3.164,-0.7031 8.437,-0.7031 5.625,-0.3516 8.789,-0.3516 3.164,0 9.141,0 5.977,0 8.086,0 11.25,0 32.344,0.7031 21.093,0.7032 32.343,0.7032 1.407,0 7.383,-0.3516 5.977,-0.3516 9.492,-0.3516 13.36,0 15.469,2.1094 1.758,0 5.977,-0.3516 4.57,-0.3515 6.679,-0.3515 3.165,0 5.274,0.3515 2.461,0.3516 4.922,1.7579 2.461,1.0546 4.219,2.8125 2.109,1.7578 3.515,4.9218 1.758,3.1641 2.461,7.7344 l -102.305,448.5938 h -205.664 l -39.0231,-225.7032 -24.2578,186.3282 q -0.3516,2.1093 -2.1094,11.6015 -1.4063,9.4922 -2.4609,13.0078 -0.7032,3.5157 -2.8125,9.4922 -2.1094,5.9766 -5.2735,8.4375 -3.164,2.461 -7.7344,2.461 -13.0078,0 -38.6718,-1.0547 -25.6641,-1.0547 -38.6719,-1.0547 -22.5,0 -59.0625,1.0547 -36.5625,1.0547 -53.4375,1.0547 h -11.25 l -93.5156,-436.9922 2.1093,-24.961 q 0,-0.7031 0,-2.8125 0,-2.1093 0,-2.4609 0,-0.7031 0.3516,-2.1094 0.3516,-1.7578 1.0547,-2.4609 0.7031,-0.7031 2.1094,-1.7578 1.4062,-1.0547 3.5156,-1.7578 9.8437,1.4062 14.7656,1.4062 h 23.2031 q 7.0313,0 7.0313,-1.4062 h 11.9531 q 1.4063,0 4.9219,-0.3516 3.8672,-0.3516 7.0312,-0.3516 h 9.8438 q 3.8672,0 11.25,-0.3515 7.3828,-0.3516 11.25,-0.3516 h 23.2031 v 1.4063 h 23.2031 q 11.25,0 16.875,3.5156 5.9766,3.164 6.3282,13.3594 z"
           id="path309" /><path
           d="m 10498.573,-5726.7251 q -2.461,8.0859 -4.922,21.4453 -2.109,13.0078 -4.219,20.7422 -1.758,7.3828 -6.328,15.8203 -4.57,8.086 -14.062,11.9531 -9.141,3.8672 -23.907,3.8672 h -151.875 v -11.9531 q 18.633,-55.8984 54.141,-171.5625 35.859,-115.6641 55.547,-175.0781 v 0.7031 q 11.953,-34.1016 35.156,-106.875 0.352,-0.7031 1.055,-1.7578 3.164,-5.2734 5.976,-8.0859 l 189.844,1.4062 q 48.516,0 53.438,8.4375 v 9.1406 q 0.703,3.1641 7.734,16.1719 34.101,104.4141 49.922,151.875 v 4.2188 q 1.406,10.1953 6.328,23.2031 4.922,13.0078 11.601,28.125 7.032,14.7656 9.844,23.2031 l 14.063,50.625 q 12.304,40.7813 36.211,108.9844 v -0.7031 7.0312 q 1.054,4.9219 5.273,13.3594 4.219,8.4375 5.274,11.9531 0,9.8438 -4.219,12.6563 -3.867,2.8125 -15.469,2.8125 h -163.125 q -5.977,-0.7032 -7.734,-1.0547 -1.758,-0.3516 -5.625,-1.4063 -3.516,-1.0547 -5.274,-2.8125 -1.406,-1.7578 -1.758,-4.5703 l -13.359,-53.4375 q -1.406,-6.6797 -2.812,-7.3828 -1.407,-1.0547 -8.438,-1.0547 z m 16.875,-125.1562 v 1.4062 z m 77.344,-42.1875 q -2.11,-9.8438 -6.329,-31.6407 -3.867,-22.1484 -7.734,-38.3203 -3.867,-16.5234 -8.437,-30.5859 v -16.875 q -2.813,-7.3828 -9.844,-10.5469 v 0.7031 q -8.438,1.7578 -16.875,47.1094 v 16.875 q -0.703,2.4609 -3.164,4.5703 -2.461,2.1094 -2.461,2.461 -11.602,51.3281 -18.985,82.9687 0,3.5156 -1.757,12.3047 -1.758,8.7891 -1.758,10.1953 h 87.187 q 0,-9.1406 -6.328,-33.0469 v -7.7343 q -0.351,-1.0547 -2.109,-3.8672 -1.406,-3.1641 -1.406,-4.5703 z"
           id="path311" /><path
           d="m 10857.87,-6123.2876 h 65.39 q 30.235,0 96.68,-1.4062 66.445,-1.4063 99.492,-1.4063 28.477,0 53.086,3.1641 24.961,3.164 48.867,11.6015 24.258,8.4375 41.133,21.4453 17.227,13.0079 27.774,34.4532 10.546,21.0937 10.546,48.8672 0,38.3203 -17.929,65.3906 -17.93,27.0703 -55.196,45.7031 14.766,6.3281 25.664,16.5234 10.899,10.1954 16.524,17.5782 5.976,7.3828 11.25,24.9609 5.625,17.2266 6.68,22.8516 1.054,5.2734 4.57,26.7187 1.055,4.9219 1.406,7.3828 1.406,14.0625 11.953,51.6797 10.547,37.2656 10.547,57.3047 0,12.6563 -7.734,12.6563 -21.094,0 -63.985,0.3515 -42.539,0.3516 -63.281,0.3516 -8.437,-0.7031 -25.312,-0.7031 h -23.907 q -7.031,-2.1094 -13.711,-21.7969 -6.679,-19.6875 -9.492,-44.2969 l -7.734,-62.5781 q -2.109,-7.7344 -3.516,-10.8985 -1.054,-3.5156 -4.218,-8.0859 -3.165,-4.9219 -8.79,-6.6797 -5.273,-1.7578 -13.71,-1.7578 h -16.172 v 140.625 q 0,1.0547 0,3.5156 0,2.1094 0,3.1641 0,0.7031 0,2.4609 0,1.7578 -0.352,2.8125 -0.351,0.7032 -0.703,2.1094 -0.352,1.4063 -1.055,2.1094 -0.351,0.3515 -1.406,1.4062 -0.703,0.7032 -2.109,1.0547 -1.055,0.3516 -2.813,0.7031 -1.406,0.3516 -3.515,0.3516 h -184.922 z m 198.984,185.625 q 0.703,0.7031 2.109,3.1641 1.407,2.1093 2.813,3.5156 1.406,1.4062 2.812,1.7578 10.547,0 21.094,-2.1094 10.547,-2.4609 21.445,-7.7343 11.25,-5.2735 17.93,-16.1719 7.031,-10.8985 7.031,-26.0156 0,-36.5625 -70.312,-36.5625 -7.031,1.7578 -7.031,5.625 v 13.3593 q 0,10.1953 1.054,30.586 1.055,20.3906 1.055,30.5859 z"
           id="path313" /><path
           d="m 11347.948,-6093.7563 q 0,-21.0938 1.758,-24.6094 3.164,-4.9219 10.195,-4.9219 h 8.437 q 5.625,0 7.735,0.7031 h 18.281 q 35.508,0 107.227,-1.7578 72.07,-1.7578 107.929,-1.7578 h 93.516 q 9.141,1.0547 9.141,9.1406 v 117.4219 q -0.352,2.1094 -1.407,3.8672 -0.703,1.4062 -1.406,2.1094 -0.352,0.3515 -3.164,2.4609 -2.813,1.7578 -3.867,2.8125 h -163.125 v 43.5938 h 15.469 q 20.39,0 62.226,-1.4063 41.836,-1.4062 64.336,-1.4062 9.844,0 13.359,3.8671 3.516,3.8672 3.516,10.8985 0,1.7578 -0.703,5.9765 -0.703,4.2188 -0.703,5.9766 v 13.3594 q 0,1.4062 0.351,5.9765 0.352,4.2188 0.352,7.3829 v 9.8437 q 0,7.7344 0.703,15.4688 0.703,7.7343 0.703,13.3593 v 9.1407 q -1.758,4.2187 -2.812,5.625 -1.055,1.4062 -3.516,1.4062 v -0.7031 q -13.008,0 -45,1.7578 -31.641,1.7578 -50.625,1.7578 h -56.25 v 45 q 2.813,0 8.438,0.3516 5.625,0.3515 8.437,0.3515 15.82,0 46.758,-1.0547 30.937,-1.0546 44.648,-1.0546 h 45 q 18.282,0 23.203,4.2187 1.758,2.1094 2.813,4.2188 v 112.5 q 0,7.3828 -2.813,11.25 -2.812,3.8671 -10.546,4.2187 h -348.047 l -10.547,-9.1406 z"
           id="path315" /></g></g></g></svg>
