<?xml version="1.0" encoding="UTF-8" standalone="no"?>
<!-- Created with Inkscape (http://www.inkscape.org/) -->

<svg
   version="1.1"
   id="svg2"
   xml:space="preserve"
   width="621.26025"
   height="555.89191"
   viewBox="0 0 621.26025 555.89189"
   xmlns="http://www.w3.org/2000/svg"
   xmlns:svg="http://www.w3.org/2000/svg"><defs
     id="defs6" /><g
     id="g8"
     transform="matrix(1.3333333,0,0,-1.3333333,-359.71112,935.66531)"><g
       id="g10"
       transform="scale(0.1)"><path
         d="m 6707.0155,5639.14 c -344.24,309 -418.15,367.63 -860.82,530.64 190.65,-104.63 333.25,-230.75 492.92,-371.35 -80.61,-9.98 -161.23,-19.95 -241.84,-29.92 0,0 20.02,-13.42 122.33,-76.28 102.31,-62.86 277.1,-220.32 277.1,-220.32 0,0 0,0 -47.75,6.72 -47.75,6.71 -222,8.54 -222,8.54 472.99,-268.26 572.61,-699.33 451.27,-1193.45 243.85,395.49 193.13,714.12 -65.73,1068.34 98.6,-40.61 185.38,-87.51 272.4,-145.87 0,0 -12.28,23.2 -123.74,162.35 -111.44,139.14 -349.56,320.09 -349.56,320.09 87.55,2.98 182.6,-11.52 295.42,-59.49 z m -2291.82,-322.94 c 55.45,21.87 149.46,10.39 185.85,43.69 27.54,25.2 65.38,99.46 65.38,99.46 -138.94,-7.29 -194.37,-9.9 -251.23,-143.15 z m -806.47,-801.16 c 0,0 -112.42,115.53 -138,158.75 -25.58,43.22 -72.23,139.05 0.63,194.54 72.87,55.49 152.52,70.8 200.62,74.59 48.1,3.79 48.1,3.79 48.1,3.79 0,0 94.75,67.95 173.93,97.36 13.5,5.02 25.35,10.09 35.71,15.07 v 0 c 53.37,20.45 174.2,110.65 215.75,182.51 41.55,71.85 41.55,71.85 41.55,71.85 0,0 -100.52,-96.33 -168.08,-138.2 25.88,75.4 70.14,197.45 116.26,293.71 72.06,150.41 336.09,363.42 506.65,453.73 170.55,90.32 249.63,140.64 330.94,195.66 l 13.63,9.22 -329.72,-135.99 c 169.66,190.79 373.62,309.15 474.8,834.9 130.74,-10.17 214.27,-104.01 270.8,-207.83 6.75,14.12 13.4,28.74 19.92,43.91 l 0.23,0.54 2.19,5.14 0.17,0.4 c 1.28,3.05 2.57,6.12 3.85,9.21 l 0.33,0.8 2.16,5.26 0.31,0.75 c 1.3,3.22 2.61,6.45 3.9,9.72 l 2.71,6.85 3.52,9.12 3.21,8.48 3.19,8.58 3.66,10.11 2.55,7.15 c 1.42,4.03 2.83,8.1 4.24,12.2 l 1.79,5.25 c 1.52,4.5 3.03,9.06 4.54,13.65 l 1.44,4.43 c 1.54,4.73 3.07,9.53 4.58,14.37 l 1.58,5.07 c 1.6,5.12 3.16,10.29 4.72,15.51 l 1.07,3.55 c 1.58,5.34 3.14,10.74 4.7,16.19 l 1.26,4.44 c 1.6,5.63 3.18,11.33 4.74,17.08 l 0.83,3.03 c 1.67,6.18 3.31,12.42 4.95,18.73 l 0.48,1.86 c 1.69,6.58 3.38,13.23 5.03,19.96 l 0.37,1.5 c 1.68,6.85 3.34,13.78 4.98,20.78 l 0.32,1.35 c 1.58,6.83 3.16,13.72 4.72,20.7 l 0.54,2.45 c 1.61,7.21 3.18,14.52 4.74,21.9 l 0.12,0.58 c 1.61,7.64 3.19,15.36 4.75,23.18 l 0.17,0.79 c 1.59,7.98 3.15,16.05 4.7,24.22 265.61,-17.73 336.24,-387.42 381.24,-479.04 509.75,-114.92 943.5,-341.87 1202.23,-814.71 -77.3,56.18 -319.14,219.21 -413.14,210.61 -0.18,0.07 651.68,-347.9 661.4,-938.34 -29.58,98.58 -195.56,316.89 -290.91,319.63 -5.77,6.71 485.77,-513.47 70.07,-951.63 37.36,109.59 58.91,340.95 -24.24,508.08 -10.15,-832.37 -568.04,-1551.86 -1489.26,-1889.99 -1127.68,-413.93 -2377.4,164.69 -2791.33,1292.37 -343.72,936.45 -2.95,1956.99 768.26,2513.24 -619.48,-535.39 -876.06,-1417.68 -577.22,-2231.8 385.61,-1050.54 1549.84,-1589.57 2600.39,-1203.97 331.92,121.84 651.32,403.81 767.05,753.48 -189.01,-285.28 -411.42,-430.8 -555.76,-460.62 100.35,110.68 130.87,194.93 121.9,316.45 -179.62,-253.22 -494.38,-379.64 -572.23,-355.13 594.73,424.19 -48.29,763.8 -543.26,292.37 -95.76,-91.22 -191.54,-182.43 -277.19,-216.31 -85.67,-33.88 -183.94,-15.61 -226.43,28.54 -42.49,44.15 -54.35,73.74 -54.35,73.74 9.42,12.63 18.84,25.24 28.26,37.85 0,0 -47.46,30.76 -59.97,62 -12.51,31.25 -19.76,49.33 -19.76,49.33 0,0 28.85,-15.26 73.57,-18.52 44.72,-3.27 44.72,-3.27 44.72,-3.27 l 0.04,0.13 0.09,-0.17 c 79.73,33.17 202.71,178.98 140.37,374.53 4.92,-158.28 -75.25,-260.79 -118.78,-276.76 18.69,201.44 -76.06,510.01 -293.69,527.11 -68.31,5.36 -92.17,-2.17 -92.17,-2.17 0,0 -3.24,-64.14 21.21,-109.71 24.46,-45.56 27.09,-52.15 27.09,-52.15 0,0 -90.1,8.18 -125.64,60.79 -35.55,52.61 -46.75,80.57 -46.75,80.57 0,0 -23.39,-21.63 -39.91,-31.98 -16.52,-10.34 -16.52,-10.34 -16.52,-10.34 0,0 10.06,-30.31 21.26,-58.26 11.2,-27.95 11.86,-29.6 11.86,-29.6 0,0 -36.93,4.44 -60.89,17.82 -23.97,13.38 -24.63,15.02 -24.63,15.02 0,0 -8.54,-14.8 -17.93,-22.32 -9.38,-7.53 -13.7,-22.56 -13.7,-22.56 0,0 1.04,-12.93 12.79,-21.62 11.75,-8.68 -32.97,-5.42 -58.72,7.26 -25.75,12.68 -37.71,63.18 -37.71,63.18 0,0 -25.26,-1.4 -26.89,46.51 -1.65,47.91 -1.65,47.91 -1.65,47.91 v 0"
         style="fill:#ffffff;fill-opacity:1;fill-rule:evenodd;stroke:none"
         id="path2201" /></g></g></svg>
